<svg xmlns="http://www.w3.org/2000/svg" xmlns:xlink="http://www.w3.org/1999/xlink" width="312" height="445" viewBox="0 0 312 445"><defs><style>.cls-1{fill:none;}.cls-2{clip-path:url(#clip-path);}.cls-3{fill:#5e6960;}</style><clipPath id="clip-path"><rect class="cls-1" x="26.51" y="13.13" width="233.53" height="387.65" transform="translate(-17.49 13.27) rotate(-5)"/></clipPath></defs><g id="Layer_4" data-name="Layer 4"><g id="Group_18" data-name="Group 18"><g class="cls-2"><g id="Group_17-2" data-name="Group 17-2"><path id="Path_205-2" data-name="Path 205-2" class="cls-3" d="M161.16,11.14c19.94,1.14,35,22.29,50.05,41.87A179.48,179.48,0,0,1,229,81.61c24.62,48.69,18.28,98.83,28.43,185.19C267,348.32,278.9,357,272,373.19,243.77,439,31.78,330.47,29.73,247.77,28.67,205,93,200.43,105.8,115.18,110,87.59,107.6,59.4,123.07,35.4c2.66-4.14,17-25.46,38.09-24.26"/></g></g></g></g></svg>