<svg xmlns="http://www.w3.org/2000/svg" width="213" height="275" viewBox="0 0 213 275"><defs><style>.cls-1{fill:#282828;}</style></defs><g id="Layer_4" data-name="Layer 4"><path class="cls-1" d="M177.19,133.47c0,1.82-4.19,3.22-4.74,3.4-5.49,1.76-9.54-.75-15.2-1.78-7.75-1.4-15.74-.1-15.94,1.31-.26,1.78,12.19,3.28,29,11.67,6.8,3.39,16.61,9,15.93,10.74-.39,1-4.09.35-8.06-.34-12.49-2.2-14.61-5.11-22.57-6.19-8.87-1.2-9.57,1.95-18,.47S124.39,147.14,122,146C100.88,135.82,16.84,241.57,20.7,244.56s85.79-98.82,69.55-119c-3.19-4-13.25-8.6-12.1-13.06.8-3.08,6-2.31,7.57-5.63C88.3,101.4,77,94.06,67.25,77.22c-5-8.69-9.36-19.34-7.69-20.44,1.95-1.28,11.81,10.53,13,12C87.27,86.47,90,100.06,97.19,99.86c2.92-.08,5.52-2.38,6.65-4.55,2.64-5.08-2.17-10.54-10.25-27.26-5.72-11.85-7.2-17.17-7.85-22.44-.71-5.71-.83-14.43,1.77-15.19,1.61-.47,3.71,2.25,5.09,4C95.41,38.08,96.67,42,98,48.62c2,9.54.68,8,2,11.88,2.54,7.68,6.29,10.22,8.36,16.38a4.44,4.44,0,0,0,1.16,1.91c2,1.86,6,1.76,8,.35,3.41-2.3,2.66-8.68,1.69-16.19-.39-3-1.18-7.87-4.91-20.74-2.66-9.16-3.63-11.42-4.16-16.65-.17-1.72-1.25-13.24,1.85-14.2,1.53-.47,3.5,1.81,4.23,2.67,3.33,3.86,3.23,8.25,4,11.71.39,1.82,3,14.2,9.44,17.29,7.1,3.43,19.24-4.34,26.09-12.16,9.3-10.6,8.66-21,17.15-23.47,2.51-.72,7.39-1.18,9.14,1.26C188,17,148.88,47.09,156.22,60.93c2,3.77,7.13,5.74,10.54,6.17,9.54,1.18,16.76-8.4,20.6-5.7,1.63,1.15,2,3.94,1.49,5.9-1.06,4-8.12,6.36-22.2,10.84-13.35,4.25-17.5,5.57-19.28,9.6-1.21,2.75-1.35,6.8.73,9,5.11,5.3,20.93-2,22.85-2.87,8.2-3.77,11.89-8,16.53-6.36,2,.72,4.15,2.52,4.4,4.66.6,5.24-10.41,10.23-12.15,11-8.52,3.86-12.78,2.48-29.65,5.43-12.62,2.21-15.3,3.86-16.54,6.37-1.9,3.81-.62,9.9,3.05,12.79,5.2,4.1,11.07-1.51,25.08,0C168.66,128.45,177.15,130.89,177.19,133.47Z"/></g></svg>