<svg xmlns="http://www.w3.org/2000/svg" width="414" height="627" viewBox="0 0 414 627"><defs><style>.cls-1{fill:#282828;}</style></defs><g id="Layer_4" data-name="Layer 4"><path d="M254.62,298.24c7.15,18,16.14,22.7,53,56a646.23,646.23,0,0,1,60,64,118.58,118.58,0,0,1,9,14c5.37,9.7,8.8,16.08,8,24-.39,3.78-1.24,6.69-4,12a120.12,120.12,0,0,1-8,14c-5.14,7.51-6.82,17.49-7,35-.41,38.75,7.2,49.1,4,61-13.94,51.82-208.85,44.15-216,14-.21-.87-2.34-10.51-4-23a59.36,59.36,0,0,0-6-20c-2.93-5.66-4.38-6-5-6-5.42-.17-8.89,19.42-14,19-2.58-.2-3.62-5.33-6-5-2.16.31-1.9,4.58-5,6-2.76,1.27-4.39-1.46-8-1-5.7.74-6.91,8.22-11,8-3-.16-3-4.26-7-6-6.12-2.65-12.38,4.19-15,2-2.81-2.33,4.51-9.93,2-19-1.89-6.8-7.06-6.26-10-15-2-6-.26-8.21-3-12-3.27-4.51-7.46-3.67-11-7-5.91-5.54-3.72-16.75-3-21,4-23.33-.15-49.31-5-80-3.45-21.75-6.32-19.4-9-40a215.5,215.5,0,0,1,0-54c2-19.39-.44-13.2-4-117-1.94-56.6-2.46-94.79,16-120,2.65-3.62,8.24-10.45,13-16,14-16.27,24.06-27.84,40-37,9.71-5.58,18.69-8.59,19-8s-9.23,5.47-22,15c-8.08,6-17.64,14.1-17,15,.48.7,6.48-3.45,26-14,12.68-6.85,13.08-6.68,16-9,4.15-3.29,6.29-6,11-7,4.22-.91,5.51.61,9-1,3.76-1.72,3.42-4,8-6a57.61,57.61,0,0,1,6-2s11.79,1.12,17,2,7.81,2.16,26,12c22.54,12.2,27.08,14.91,33,19,7.58,5.26,14.27,10.61,14,11-.48.69-20.81-14.64-51-27-5.37-2.19-25.89-10.59-28-7-1,1.68,2.39,5.35,3,6,5.54,6,12,5.61,20,8,13.89,4.18,12.26,10.92,29,17a59.24,59.24,0,0,0,17,4c15.37,1.16,25.53-4.65,29,0,1.91,2.56,1.11,7.37,1,8-.72,4.05-3.19,6.45-2,9,.36.78.91,1.2,2,2,3.55,2.64,6,2.13,10,4a13.54,13.54,0,0,1,6,5c1.73,2.83.57,3.89,2.5,6.5,1.35,1.85,2.27,1.79,5,5a13,13,0,0,1,2,3c.53,1.17.52,1.66,1,3a19.5,19.5,0,0,0,2,4,25.53,25.53,0,0,0,3.5,4.5,91.35,91.35,0,0,1,7,8c4.14,6,2.26,14,2,15-1.56,6.19-6,9.46-13,15-7.32,5.77-18,14.27-22,18-7.6,7.12-10.51,19.18-16,43-5.41,23.42-8.53,37-7,56C248.17,272.08,249.28,284.83,254.62,298.24Z"/><path class="cls-1" d="M67,54.61c-2.72,3.06-5.52,6.31-8.5,9.78-4.75,5.55-10.35,12.38-13,16-18.45,25.21-17.94,63.4-16,120,3.56,103.8,6,97.61,4,117a216.5,216.5,0,0,0,0,54c2.68,20.6,5.56,18.25,9,40,4.86,30.69,9,56.67,5,80-.72,4.25-2.91,15.46,3,21,3.54,3.33,7.73,2.49,11,7,2.74,3.79,1,6,3,12,2.94,8.74,8.11,8.2,10,15,2.52,9.07-4.8,16.67-2,19,2.63,2.19,8.88-4.65,15-2,4,1.74,4,5.84,7,6,4.09.22,5.31-7.26,11-8,3.61-.46,5.24,2.27,8,1,3.1-1.42,2.85-5.69,5-6,2.38-.33,3.43,4.8,6,5,5.11.42,8.58-19.17,14-19,.63,0,2.07.34,5,6a58.88,58.88,0,0,1,6,20c1.67,12.49,3.79,22.13,4,23,5.58,23.51,125.34,33.35,184.41,12Z"/></g></svg>