<svg xmlns="http://www.w3.org/2000/svg" width="204.428" height="228.911" viewBox="0 0 204.428 228.911">
  <path id="Path_202" data-name="Path 202" d="M536.376,212.9c-1.253,1.14,8.447,10.634,9.6,21.207,1.882,17.31-19.76,32.824-25.3,37.112C467.363,312.5,458.708,434.458,456.121,433.8c-1.818-.46,7.542-59.457,41-119.29,16.935-30.284,33.122-48.406,51.467-48.6,4.63-.049,8.1,1.059,13.085,2.651,21.46,6.853,30.037,21.289,45.361,35.345,23.715,21.751,51.569,31.564,53.212,29.16,1.377-2.016-13.74-15.451-24.425-23.858-22.62-17.8-37.631-22.692-36.638-26.509,1.827-7.021,53.949,4.415,54.957,0,.768-3.364-27.268-20.246-54.085-13.254-9.334,2.434-16.79,7.232-19.191,4.418-2.719-3.186,2.707-14.182,10.468-21.207,6.927-6.27,16.03-8.776,15.7-9.72-.343-.986-9.751,3.285-13.957-.884-.186-.184-2.113-2.148-1.745-4.418.741-4.566,9.728-3.971,12.213-9.72,1.109-2.565,1-6.577-.872-7.953-5.769-4.237-24.69,19.149-31.4,15.022-6.254-3.844,2.664-28.735-.872-30.043-2.92-1.081-8.319,16.143-18.319,16.789-7.974.515-14.663-9.782-15.7-8.836" transform="translate(-455.906 -204.895)" fill="#282828"/>
</svg>
