<svg xmlns="http://www.w3.org/2000/svg" xmlns:xlink="http://www.w3.org/1999/xlink" width="503" height="327" viewBox="0 0 503 327"><defs><style>.cls-1{fill:none;}.cls-2{clip-path:url(#clip-path);}.cls-3{fill:#5c695f;}</style><clipPath id="clip-path"><rect class="cls-1" x="-29.3" y="44.76" width="518.2" height="194.07" transform="translate(-40.11 133.9) rotate(-30)"/></clipPath></defs><g id="Layer_4" data-name="Layer 4"><g class="cls-2"><g id="Group_23" data-name="Group 23"><path id="Path_209" data-name="Path 209" class="cls-3" d="M20.27,296.25c11.53,12.31,42.91,6.8,72.53,2.46a312.64,312.64,0,0,0,41.11-9.12c67.07-19.26,119.81-60,221.5-116.2,96-53.08,111.84-51.58,126.33-67.93,59-66.49-171.36-127.1-264.81-68.19C168.58,67.75,196.61,113.43,108,184,79.3,206.82,46.6,225.8,27.75,253.49c-3.25,4.76-19.67,29.75-7.49,42.76"/></g></g></g></svg>