<svg xmlns="http://www.w3.org/2000/svg" width="275" height="298" viewBox="0 0 275 298"><defs><style>.cls-1{fill:#282828;}</style></defs><g id="Layer_4" data-name="Layer 4"><path class="cls-1" d="M164.41,35.6c1.43,1.29-9.69,12-11,24-2.16,19.59,22.65,37.15,29,42,61.11,46.72,71,184.74,74,184,2.08-.52-8.65-67.28-47-135-19.42-34.27-38-54.78-59-55-5.31,0-9.29,1.2-15,3-24.6,7.76-34.44,24.1-52,40-27.19,24.62-59.12,35.72-61,33-1.58-2.28,15.75-17.48,28-27,25.93-20.14,43.13-25.68,42-30-2.1-7.94-61.85,5-63,0-.88-3.8,31.26-22.91,62-15,10.7,2.76,19.24,8.19,22,5,3.11-3.6-3.11-16-12-24-7.94-7.09-18.38-9.93-18-11s11.17,3.72,16-1c.21-.21,2.42-2.43,2-5-.85-5.16-11.16-4.49-14-11-1.28-2.9-1.15-7.44,1-9,6.61-4.79,28.3,21.67,36,17,7.16-4.35-3.06-32.52,1-34,3.34-1.22,9.53,18.27,21,19C155.55,46.19,163.21,34.53,164.41,35.6Z"/></g></svg>