<svg xmlns="http://www.w3.org/2000/svg" xmlns:xlink="http://www.w3.org/1999/xlink" width="179.148" height="189.718" viewBox="0 0 179.148 189.718">
  <defs>
    <clipPath id="clip-path">
      <path id="Path_206" data-name="Path 206" d="M0,0,141.649,5.779l9.592,126.334L9.592,126.334Z" transform="translate(0 0)" fill="#3c4b3f"/>
    </clipPath>
  </defs>
  <g id="Group_27" data-name="Group 27" transform="matrix(-0.292, -0.956, 0.956, -0.292, 277.11, 462.21)">
    <g id="Group_17" data-name="Group 17" transform="translate(487.219 -12.724) rotate(175)" clip-path="url(#clip-path)">
      <path id="Path_205" data-name="Path 205" d="M58.659,127.639c-12.062-1.424-20.588-9.046-29.17-16.157a68.984,68.984,0,0,1-9.979-10.168C5.953,84.3,11.213,68.472,7.5,40.083,3.986,13.285-2.98,9.848,1.68,5,20.636-14.713,146.126,31.519,145.037,58.3c-.564,13.858-39.7,11.911-49.874,38.722-3.294,8.679-2.66,17.894-12.722,24.815a35.747,35.747,0,0,1-23.782,5.8" transform="translate(0.588 0.618)" fill="#3c4b3f"/>
    </g>
  </g>
</svg>
