<svg xmlns="http://www.w3.org/2000/svg" xmlns:xlink="http://www.w3.org/1999/xlink" width="364" height="357" viewBox="0 0 364 357"><defs><style>.cls-1{fill:none;}.cls-2{clip-path:url(#clip-path);}.cls-3{fill:#566356;}</style><clipPath id="clip-path"><polygon class="cls-1" points="263.2 18.03 348.86 246.07 81.45 364.67 -4.21 136.62 263.2 18.03"/></clipPath></defs><g id="Layer_4" data-name="Layer 4"><g id="Group_19" data-name="Group 19"><g class="cls-2"><g id="Group_17" data-name="Group 17"><path id="Path_205" data-name="Path 205" class="cls-3" d="M26,216.48c-5.27-20.19,5.35-39.87,14.83-59.22A136.92,136.92,0,0,1,56,133.2c27.5-35.31,65.49-40,124.5-69.09,55.7-27.49,58.33-41.28,72.07-37.9,55.91,13.73,42.61,249.43-16.24,269.65C205.88,306.32,183,243,117.76,249c-21.11,1.92-40.66,10.46-62.65.27-3.78-1.75-23.5-11.42-29.07-32.74"/></g></g></g></g></svg>