<svg xmlns="http://www.w3.org/2000/svg" width="447" height="878" viewBox="0 0 447 878"><g id="Layer_3" data-name="Layer 3"><path d="M406.26,235.65c8.5,23.18,8.29,26.34,6.88,28.6-3.34,5.33-9.59,3.49-15.14,7.15-4.56,3-6.32,8.4-8.25,14.31A92.85,92.85,0,0,0,387,297.15c-.93,5.2-.88,7.4-2.75,10a20.09,20.09,0,0,0-2.75,4.29c-.86,1.93-.72,2.6-1.38,4.29a15.37,15.37,0,0,1-4.13,5.72c-1.82,1.74-2.59,1.78-4.46,2.79a27.12,27.12,0,0,0-2.41,1.5,24.89,24.89,0,0,0-5.51,5.72,39.85,39.85,0,0,0-4.49,7.8,17.22,17.22,0,0,1-1,2.21c-4.39,7.71-14,11.72-22,11.44-4.65-.15-6.11-1.66-15.13-5.72-13.22-5.94-21.27-9.56-31.64-10-4.4-.19-15.88-.52-23.38,7.15,0,0-.38.39-.77.83-2.88,3.29-9.1,12.52-11.61,39.22-1,10.18-2.79,29.57,1.37,50.05,14,68.78,85.65,102.26,107.3,167.34,1.59,4.77,2.58,8.73,5.5,15.73,15.16,36.28,36.77,45.27,34.39,64.36-.44,3.54-3.05,8.08-8.25,17.16-4.32,7.52-11.6,20-24.76,30-9.23,7.07-10.05,4.33-13.76,8.58-9.9,11.36-3.12,29.81,2.75,67.22,4,25.55,6,38.32,4.13,42.91C344.42,891,156.91,888.51,100.88,794.85c-7.24-12.1-3.22-10.56-20.64-64.36C46.75,627.06,32.17,622.31,21.09,570.31,13.75,535.86-4.59,449.83,37.6,403c25.2-28,46.84-14,85.29-51.49,4.71-4.59,57.46-57.05,44-97.25-6.61-19.77-24.44-22.22-27.51-45.76-2.68-20.56,8.94-33.81,1.38-42.91-6.58-7.9-16.86.29-30.27-7.15-18.92-10.5-22.39-40.13-23.38-48.63-1.88-16.05,3-15,1.38-38.61C87.11,50.5,83,41.39,88.5,34c5.71-7.69,17.35-7.5,28.88-7.15,32.12,1,57,17.14,59.15,12.87,1.05-2.09-5.13-5.92-4.12-11.44,1-5.72,9.31-10.45,16.5-10,10,.61,11.68,11.12,20.64,15.73,15,7.74,29-11.94,55-18.59,25.68-6.56,48.28,3.35,79.79,17.16a205.88,205.88,0,0,1,52.27,32.9c11.64,10.09,22.82,20,31.64,37.18a117.83,117.83,0,0,1,11,34.33,142.07,142.07,0,0,1,1.38,37.18,163.24,163.24,0,0,1-5.51,31.47c-4.21,15.12-10.88,30.53-12.38,30S427.19,217.48,431,187c0,0,4.55-36.22-6.88-65.79-1-2.61-2.5-5.81-4.13-5.72-.78,0-3,.94-5.5,17.17-3.06,20.25-.23,23.5-2.75,38.61a215.91,215.91,0,0,1-6.88,27.17c-2.69,8.35-4.33,12.2-4.12,18.6C400.91,222,402.06,224.22,406.26,235.65Z"/></g></svg>